<svg width="11" height="11" viewBox="0 0 11 11" fill="none" xmlns="http://www.w3.org/2000/svg">
<path d="M5.5 10C5.35082 10 5.20774 9.94074 5.10225 9.83525C4.99676 9.72976 4.9375 9.58668 4.9375 9.4375V6.0625H1.5625C1.41332 6.0625 1.27024 6.00324 1.16475 5.89775C1.05926 5.79226 1 5.64918 1 5.5C1 5.35082 1.05926 5.20774 1.16475 5.10225C1.27024 4.99676 1.41332 4.9375 1.5625 4.9375H4.9375V1.5625C4.9375 1.41332 4.99676 1.27024 5.10225 1.16475C5.20774 1.05926 5.35082 1 5.5 1C5.64918 1 5.79226 1.05926 5.89775 1.16475C6.00324 1.27024 6.0625 1.41332 6.0625 1.5625V4.9375H9.4375C9.58668 4.9375 9.72976 4.99676 9.83525 5.10225C9.94074 5.20774 10 5.35082 10 5.5C10 5.64918 9.94074 5.79226 9.83525 5.89775C9.72976 6.00324 9.58668 6.0625 9.4375 6.0625H6.0625V9.4375C6.0625 9.58668 6.00324 9.72976 5.89775 9.83525C5.79226 9.94074 5.64918 10 5.5 10Z" fill="#FF0090" stroke="#FF0090"/>
</svg>
