<svg width="34" height="34" viewBox="0 0 34 34" fill="none" xmlns="http://www.w3.org/2000/svg">
<path d="M11.8974 24.4401C13.8301 20.0584 17.0104 17.2181 17.0104 17.2181C17.0104 17.2181 17.0574 21.4819 15.1247 25.8635C13.1921 30.2452 10.0117 33.0856 10.0117 33.0856C10.0117 33.0856 9.96477 28.8218 11.8974 24.4401Z" stroke="#681F20" stroke-linecap="round" stroke-linejoin="round"/>
<path d="M19.0233 8.28426C20.956 3.90257 24.1364 1.06224 24.1364 1.06224C24.1364 1.06224 24.1833 5.32604 22.2506 9.70773C20.318 14.0894 17.1376 16.9297 17.1376 16.9297C17.1376 16.9297 17.0907 12.6659 19.0233 8.28426Z" stroke="#681F20" stroke-linecap="round" stroke-linejoin="round"/>
<path d="M9.70794 11.8973C14.0896 13.83 16.9299 17.0104 16.9299 17.0104C16.9299 17.0104 12.6661 17.0573 8.28446 15.1246C3.90277 13.192 1.06245 10.0116 1.06245 10.0116C1.06245 10.0116 5.32625 9.96469 9.70794 11.8973Z" stroke="#681F20" stroke-linecap="round" stroke-linejoin="round"/>
<path d="M25.8638 19.0233C30.2454 20.9559 33.0858 24.1363 33.0858 24.1363C33.0858 24.1363 28.822 24.1832 24.4403 22.2506C20.0586 20.3179 17.2183 17.1376 17.2183 17.1376C17.2183 17.1376 21.4821 17.0906 25.8638 19.0233Z" stroke="#681F20" stroke-linecap="round" stroke-linejoin="round"/>
<path d="M8.20497 18.6222C12.6699 16.8904 16.9272 17.1309 16.9272 17.1309C16.9272 17.1309 13.9454 20.179 9.48046 21.9107C5.01555 23.6425 0.758275 23.402 0.758275 23.402C0.758275 23.402 3.74006 20.3539 8.20497 18.6222Z" stroke="#681F20" stroke-linecap="round" stroke-linejoin="round"/>
<path d="M24.6677 12.2371C29.1326 10.5053 33.3899 10.7458 33.3899 10.7458C33.3899 10.7458 30.4081 13.7939 25.9432 15.5257C21.4782 17.2574 17.221 17.0169 17.221 17.0169C17.221 17.0169 20.2028 13.9688 24.6677 12.2371Z" stroke="#681F20" stroke-linecap="round" stroke-linejoin="round"/>
<path d="M15.526 8.20488C17.2577 12.6698 17.0173 16.9271 17.0173 16.9271C17.0173 16.9271 13.9691 13.9453 12.2374 9.48037C10.5057 5.01545 10.7461 0.758181 10.7461 0.758181C10.7461 0.758181 13.7942 3.73996 15.526 8.20488Z" stroke="#681F20" stroke-linecap="round" stroke-linejoin="round"/>
<path d="M21.9111 24.6676C23.6428 29.1325 23.4024 33.3898 23.4024 33.3898C23.4024 33.3898 20.3542 30.408 18.6225 25.9431C16.8908 21.4781 17.1312 17.2209 17.1312 17.2209C17.1312 17.2209 20.1794 20.2027 21.9111 24.6676Z" stroke="#681F20" stroke-linecap="round" stroke-linejoin="round"/>
</svg>
