<svg width="20" height="20" viewBox="0 0 60 60" fill="none" xmlns="http://www.w3.org/2000/svg">
<g opacity="0.9">
<path d="M38.4619 16.956C35.14 24.4636 29.6823 29.3264 29.6823 29.3264C29.6823 29.3264 29.6104 22.0169 32.9323 14.5093C36.2542 7.00173 41.7119 2.13897 41.7119 2.13897C41.7119 2.13897 41.7838 9.44843 38.4619 16.956Z" stroke="#EAA9A9" stroke-width="3" stroke-linecap="round" stroke-linejoin="round"/>
<path d="M26.2137 44.6374C22.8918 52.145 17.4341 57.0078 17.4341 57.0078C17.4341 57.0078 17.3622 49.6983 20.6841 42.1907C24.006 34.6831 29.4637 29.8204 29.4637 29.8204C29.4637 29.8204 29.5356 37.1298 26.2137 44.6374Z" stroke="#EAA9A9" stroke-width="3" stroke-linecap="round" stroke-linejoin="round"/>
<path d="M42.1902 38.4622C34.6826 35.1403 29.8199 29.6826 29.8199 29.6826C29.8199 29.6826 37.1293 29.6107 44.6369 32.9326C52.1445 36.2545 57.0073 41.7122 57.0073 41.7122C57.0073 41.7122 49.6978 41.7841 42.1902 38.4622Z" stroke="#EAA9A9" stroke-width="3" stroke-linecap="round" stroke-linejoin="round"/>
<path d="M14.5088 26.214C7.00121 22.8921 2.13846 17.4344 2.13846 17.4344C2.13846 17.4344 9.44792 17.3625 16.9555 20.6843C24.4631 24.0062 29.3259 29.464 29.3259 29.464C29.3259 29.464 22.0164 29.5359 14.5088 26.214Z" stroke="#EAA9A9" stroke-width="3" stroke-linecap="round" stroke-linejoin="round"/>
<path d="M44.7802 26.937C37.1226 29.8967 29.8249 29.476 29.8249 29.476C29.8249 29.476 34.9426 24.2566 42.6002 21.2969C50.2578 18.3371 57.5555 18.7578 57.5555 18.7578C57.5555 18.7578 52.4378 23.9772 44.7802 26.937Z" stroke="#EAA9A9" stroke-width="3" stroke-linecap="round" stroke-linejoin="round"/>
<path d="M16.5457 37.8499C8.88807 40.8097 1.59038 40.3889 1.59038 40.3889C1.59038 40.3889 6.7081 35.1695 14.3657 32.2098C22.0233 29.25 29.321 29.6707 29.321 29.6707C29.321 29.6707 24.2033 34.8902 16.5457 37.8499Z" stroke="#EAA9A9" stroke-width="3" stroke-linecap="round" stroke-linejoin="round"/>
<path d="M32.2091 44.7805C29.2493 37.1229 29.67 29.8252 29.67 29.8252C29.67 29.8252 34.8895 34.9429 37.8492 42.6005C40.8089 50.2581 40.3882 57.5558 40.3882 57.5558C40.3882 57.5558 35.1688 52.4381 32.2091 44.7805Z" stroke="#EAA9A9" stroke-width="3" stroke-linecap="round" stroke-linejoin="round"/>
<path d="M21.2961 16.546C18.3364 8.88841 18.7571 1.59071 18.7571 1.59071C18.7571 1.59071 23.9765 6.70844 26.9362 14.366C29.896 22.0236 29.4752 29.3213 29.4752 29.3213C29.4752 29.3213 24.2558 24.2036 21.2961 16.546Z" stroke="#EAA9A9" stroke-width="3" stroke-linecap="round" stroke-linejoin="round"/>
</g>
</svg>
