<svg width="45" height="30" viewBox="0 0 45 30" fill="none" xmlns="http://www.w3.org/2000/svg">
<g opacity="0.5">
<path d="M16.4142 16.4142C17.1953 15.6332 17.1953 14.3668 16.4142 13.5858L3.68629 0.857864C2.90524 0.0768156 1.63891 0.0768156 0.857864 0.857864C0.0768156 1.63891 0.0768156 2.90524 0.857864 3.68629L12.1716 15L0.857864 26.3137C0.0768156 27.0948 0.0768156 28.3611 0.857864 29.1421C1.63891 29.9232 2.90524 29.9232 3.68629 29.1421L16.4142 16.4142ZM13 17H15V13H13V17Z" fill="#530909"/>
<path d="M30.4142 16.4142C31.1953 15.6332 31.1953 14.3668 30.4142 13.5858L17.6863 0.857864C16.9052 0.0768156 15.6389 0.0768156 14.8579 0.857864C14.0768 1.63891 14.0768 2.90524 14.8579 3.68629L26.1716 15L14.8579 26.3137C14.0768 27.0948 14.0768 28.3611 14.8579 29.1421C15.6389 29.9232 16.9052 29.9232 17.6863 29.1421L30.4142 16.4142ZM27 17H29V13H27V17Z" fill="#530909"/>
<path d="M44.4142 16.4142C45.1953 15.6332 45.1953 14.3668 44.4142 13.5858L31.6863 0.857864C30.9052 0.0768156 29.6389 0.0768156 28.8579 0.857864C28.0768 1.63891 28.0768 2.90524 28.8579 3.68629L40.1716 15L28.8579 26.3137C28.0768 27.0948 28.0768 28.3611 28.8579 29.1421C29.6389 29.9232 30.9052 29.9232 31.6863 29.1421L44.4142 16.4142ZM41 17H43V13H41V17Z" fill="#530909"/>
</g>
</svg>
