<svg width="32" height="20" viewBox="0 0 32 20" fill="none" xmlns="http://www.w3.org/2000/svg">
<path d="M1 9.24278C2.45188 9.40645 3.9117 9.04144 5.17063 8.19983C8.43922 5.94771 8.52826 1.31801 8.53049 1C8.53049 1.48735 8.58307 5.74183 11.5821 8.19983C12.7477 9.13489 14.1277 9.65962 15.5518 9.70918C13.406 10.0578 11.4489 11.2989 10.0563 13.1945C8.88267 14.8427 8.20534 16.8781 8.12399 19C7.91095 17.615 7.49726 16.2804 6.89979 15.0505C5.09771 11.3516 2.14211 9.77175 1 9.24278Z" fill="#FFA5E1" stroke="#C46DA6" stroke-linecap="round" stroke-linejoin="round"/>
<path d="M23.7246 9.78676C24.4506 9.86115 25.1805 9.69524 25.8099 9.31269C27.4442 8.289 27.4887 6.18459 27.4899 6.04004C27.4899 6.26156 27.5161 8.19542 29.0156 9.31269C29.5985 9.73772 30.2885 9.97623 31.0005 9.99876C29.9276 10.1572 28.9491 10.7214 28.2527 11.583C27.6659 12.3322 27.3273 13.2574 27.2866 14.2219C27.1801 13.5923 26.9732 12.9857 26.6745 12.4266C25.7735 10.7453 24.2957 10.0272 23.7246 9.78676Z" fill="#FFA5E1" stroke="#C46DA6" stroke-linecap="round" stroke-linejoin="round"/>
</svg>
